<svg width="103" height="28" viewBox="0 0 103 28" fill="none" xmlns="http://www.w3.org/2000/svg">
<path fill-rule="evenodd" clip-rule="evenodd" d="M90.2314 4.14844V2H85.8613V4.14844H90.2314ZM46.1396 23.5942V9.56836L48.5078 23.5942H52.3652L54.5869 9.56836V23.5942H58.7617V4.14844H52.1577L50.3633 14.2925L48.5566 4.14844H42.0137V23.5942H46.1396ZM34.2988 17.3809V14.5488H28V17.3809H34.2988ZM65.7441 23.1548C65.2152 23.5942 64.6455 23.814 64.0352 23.814C63.5957 23.814 63.2091 23.7753 62.8755 23.698C62.5418 23.6207 62.2082 23.464 61.8745 23.228C61.5409 22.992 61.2662 22.6767 61.0505 22.282C60.8349 21.8873 60.6599 21.3583 60.5256 20.6951C60.3914 20.0318 60.3242 19.2485 60.3242 18.3452C60.3242 16.7257 60.5643 15.5091 61.0444 14.6953C61.4595 13.9954 62.1797 13.4054 63.2051 12.9253C63.7259 12.6812 64.8896 12.2498 66.6963 11.6313V11.5947C66.6963 11.3343 66.6943 11.1227 66.6902 10.96C66.6861 10.7972 66.682 10.6141 66.678 10.4106C66.6739 10.2072 66.6678 10.0444 66.6597 9.92236C66.6515 9.80029 66.6393 9.66602 66.623 9.51953C66.6068 9.37305 66.5885 9.26115 66.5681 9.18384C66.5478 9.10653 66.5193 9.02108 66.4827 8.92749C66.446 8.8339 66.4054 8.7627 66.3606 8.71387C66.3158 8.66504 66.265 8.62028 66.208 8.57959C66.151 8.5389 66.0839 8.51042 66.0066 8.49414C65.9293 8.47786 65.8459 8.46973 65.7563 8.46973C65.1541 8.46973 64.853 8.80339 64.853 9.4707V10.7036H60.605C60.5968 10.5653 60.5928 10.3659 60.5928 10.1055C60.5928 8.36393 61.0058 7.0883 61.8318 6.27856C62.6578 5.46883 64.0392 5.06396 65.9761 5.06396C66.6027 5.06396 67.209 5.15145 67.7949 5.32642C68.3809 5.50138 68.9261 5.7618 69.4307 6.10767C69.9352 6.45353 70.3401 6.93164 70.6453 7.54199C70.9504 8.15234 71.103 8.85221 71.103 9.6416V23.5942H66.7573V21.6899C66.6108 22.2271 66.2731 22.7153 65.7441 23.1548ZM65.7563 20.396C65.1053 20.396 64.7798 19.8548 64.7798 18.7725V16.6362C64.7798 16.0828 64.91 15.6047 65.1704 15.2019C65.4308 14.7991 65.9354 14.4471 66.6841 14.146V18.9678C66.6841 19.1224 66.6719 19.2729 66.6475 19.4194C66.623 19.5659 66.5783 19.7165 66.5132 19.8711C66.4481 20.0257 66.3504 20.1519 66.2202 20.2495C66.09 20.3472 65.9354 20.396 65.7563 20.396ZM77.4755 10.5648L77.4751 23.5942H73.105V5.27148H77.4751V7.37109C77.6541 6.58171 77.9858 5.99984 78.47 5.62549C78.9542 5.25114 79.5422 5.06396 80.2339 5.06396C81.3813 5.06396 82.2725 5.42407 82.9072 6.14429C83.542 6.8645 83.8594 7.97331 83.8594 9.4707V23.5942H79.5503V9.92236C79.5503 9.53988 79.473 9.20215 79.3184 8.90918C79.1637 8.61621 78.9155 8.46973 78.5737 8.46973C78.3621 8.46973 78.1831 8.52873 78.0366 8.64673C77.8901 8.76473 77.7823 8.89901 77.7131 9.04956C77.644 9.20011 77.589 9.39746 77.5483 9.6416C77.5076 9.88574 77.4853 10.0729 77.4812 10.2031C77.4781 10.3008 77.4762 10.4213 77.4755 10.5648ZM90.2314 5.27148V23.5942H85.8613V5.27148H90.2314ZM95.4683 23.814C96.0786 23.814 96.6483 23.5942 97.1772 23.1548C97.7062 22.7153 98.0439 22.2271 98.1904 21.6899V23.5942H102.536V9.6416C102.536 8.85221 102.384 8.15234 102.078 7.54199C101.773 6.93164 101.368 6.45353 100.864 6.10767C100.359 5.7618 99.814 5.50138 99.228 5.32642C98.6421 5.15145 98.0358 5.06396 97.4092 5.06396C95.4723 5.06396 94.0909 5.46883 93.2649 6.27856C92.4389 7.0883 92.0259 8.36393 92.0259 10.1055C92.0259 10.3659 92.0299 10.5653 92.0381 10.7036H96.2861V9.4707C96.2861 8.80339 96.5872 8.46973 97.1895 8.46973C97.279 8.46973 97.3624 8.47786 97.4397 8.49414C97.517 8.51042 97.5841 8.5389 97.6411 8.57959C97.6981 8.62028 97.7489 8.66504 97.7937 8.71387C97.8385 8.7627 97.8792 8.8339 97.9158 8.92749C97.9524 9.02108 97.9809 9.10653 98.0012 9.18384C98.0216 9.26115 98.0399 9.37305 98.0562 9.51953C98.0724 9.66602 98.0846 9.80029 98.0928 9.92236C98.1009 10.0444 98.107 10.2072 98.1111 10.4106C98.1152 10.6141 98.1192 10.7972 98.1233 10.96C98.1274 11.1227 98.1294 11.3343 98.1294 11.5947V11.6313C96.3228 12.2498 95.159 12.6812 94.6382 12.9253C93.6128 13.4054 92.8926 13.9954 92.4775 14.6953C91.9974 15.5091 91.7573 16.7257 91.7573 18.3452C91.7573 19.2485 91.8245 20.0318 91.9587 20.6951C92.093 21.3583 92.268 21.8873 92.4836 22.282C92.6993 22.6767 92.974 22.992 93.3076 23.228C93.6413 23.464 93.9749 23.6207 94.3086 23.698C94.6423 23.7753 95.0288 23.814 95.4683 23.814ZM96.2129 18.7725C96.2129 19.8548 96.5384 20.396 97.1895 20.396C97.3685 20.396 97.5231 20.3472 97.6533 20.2495C97.7835 20.1519 97.8812 20.0257 97.9463 19.8711C98.0114 19.7165 98.0562 19.5659 98.0806 19.4194C98.105 19.2729 98.1172 19.1224 98.1172 18.9678V14.146C97.3685 14.4471 96.8639 14.7991 96.6035 15.2019C96.3431 15.6047 96.2129 16.0828 96.2129 16.6362V18.7725Z" fill="#222220"/>
<path d="M8.073 27.3C8.697 27.3 9.126 27.066 9.477 26.559L19.032 13.455C19.578 12.636 19.266 12.012 18.291 12.012H12.714L22.581 1.443C23.322 0.702 23.01 0 21.957 0H1.17C0.429 0 0 0.39 0 1.17V26.13C0 26.871 0.39 27.3 1.17 27.3H8.073Z" fill="#506BFA"/>
</svg>
